<svg xmlns="http://www.w3.org/2000/svg" enable-background="new 0 0 64 64" viewBox="0 0 64 64" id="print"><path fill="#06afff" d="M62.5,27.5v16c0,1.66-1.34,3-3,3h-55c-1.66,0-3-1.34-3-3v-16H62.5z"></path><path fill="#fcda35" d="M62.5,20.5v7h-61v-7c0-1.66,1.34-3,3-3h55C61.16,17.5,62.5,18.84,62.5,20.5z"></path><path fill="#0688ff" d="M29.9,46.5H4.5c-1.66,0-3-1.34-3-3v-16h15.7C20.12,34.68,24.47,41.13,29.9,46.5z"></path><path fill="#faca00" d="M15.74,23.5c-0.22-0.66-0.42-1.32-0.61-2c-0.37-1.31-0.69-2.65-0.97-4H4.5c-1.66,0-3,1.34-3,3v7h15.7
		C16.66,26.19,16.17,24.86,15.74,23.5z"></path><polygon fill="#fff" points="41.5 11.5 41.5 1.5 12.5 1.5 12.5 17.5 51.5 17.5 51.5 11.5"></polygon><rect width="39" height="28" x="12.5" y="34.5" fill="#fff"></rect><path fill="#efefef" d="M20.13 17.5H12.5v-16h5.51C18 1.67 18 1.83 18 2 18 7.37 18.74 12.58 20.13 17.5zM51.5 53.94v8.56h-39v-28h15.68C34.02 42.92 42.08 49.68 51.5 53.94z"></path><polygon fill="#06afff" points="51.5 11.5 41.5 1.5 41.5 11.5"></polygon><path fill="#0688ff" d="M48.18,11.5H41.5V4.82C43.53,7.23,45.77,9.47,48.18,11.5z"></path><rect width="6" height="2" x="5.5" y="21.5" fill="#d949ac"></rect><rect width="3" height="2" x="14.5" y="21.5" fill="#ff56cb"></rect><path fill="#d949ac" d="M15.74,23.5H14.5v-2h0.63C15.32,22.18,15.52,22.84,15.74,23.5z"></path><g><path fill="#2828b8" d="M51.5 18c-.276 0-.5-.224-.5-.5V12h-9.5c-.276 0-.5-.224-.5-.5V2H13v15.5c0 .276-.224.5-.5.5S12 17.776 12 17.5v-16C12 1.224 12.224 1 12.5 1h29C41.776 1 42 1.224 42 1.5V11h9.5c.276 0 .5.224.5.5v6C52 17.776 51.776 18 51.5 18zM51.5 63h-39c-.276 0-.5-.224-.5-.5v-28c0-.276.224-.5.5-.5s.5.224.5.5V62h38V34.5c0-.276.224-.5.5-.5s.5.224.5.5v28C52 62.776 51.776 63 51.5 63z"></path><path fill="#2828b8" d="M51.5 12c-.128 0-.256-.049-.354-.146l-10-10c-.195-.195-.195-.512 0-.707s.512-.195.707 0l10 10c.195.195.195.512 0 .707C51.756 11.951 51.628 12 51.5 12zM59.504 47H51.5c-.276 0-.5-.224-.5-.5s.224-.5.5-.5h8.004C60.88 46 62 44.88 62 43.504V20.496C62 19.12 60.88 18 59.504 18H4.496C3.12 18 2 19.12 2 20.496v23.008C2 44.88 3.12 46 4.496 46H12.5c.276 0 .5.224.5.5S12.776 47 12.5 47H4.496C2.568 47 1 45.432 1 43.504V20.496C1 18.568 2.568 17 4.496 17h55.008C61.432 17 63 18.568 63 20.496v23.008C63 45.432 61.432 47 59.504 47z"></path><path fill="#2828b8" d="M62.5 28h-16c-.276 0-.5-.224-.5-.5s.224-.5.5-.5h16c.276 0 .5.224.5.5S62.776 28 62.5 28zM33.5 28h-32C1.224 28 1 27.776 1 27.5S1.224 27 1.5 27h32c.276 0 .5.224.5.5S33.776 28 33.5 28zM53.5 35h-43c-.276 0-.5-.224-.5-.5s.224-.5.5-.5h43c.276 0 .5.224.5.5S53.776 35 53.5 35zM41.5 28h-5c-.276 0-.5-.224-.5-.5s.224-.5.5-.5h5c.276 0 .5.224.5.5S41.776 28 41.5 28zM11.5 24h-6C5.224 24 5 23.776 5 23.5v-2C5 21.224 5.224 21 5.5 21h6c.276 0 .5.224.5.5v2C12 23.776 11.776 24 11.5 24zM6 23h5v-1H6V23zM17.5 24h-3c-.276 0-.5-.224-.5-.5v-2c0-.276.224-.5.5-.5h3c.276 0 .5.224.5.5v2C18 23.776 17.776 24 17.5 24zM15 23h2v-1h-2V23zM47.5 39h-31c-.276 0-.5-.224-.5-.5s.224-.5.5-.5h31c.276 0 .5.224.5.5S47.776 39 47.5 39zM47.5 44h-31c-.276 0-.5-.224-.5-.5s.224-.5.5-.5h31c.276 0 .5.224.5.5S47.776 44 47.5 44zM47.5 49h-31c-.276 0-.5-.224-.5-.5s.224-.5.5-.5h31c.276 0 .5.224.5.5S47.776 49 47.5 49zM21.5 54h-5c-.276 0-.5-.224-.5-.5s.224-.5.5-.5h5c.276 0 .5.224.5.5S21.776 54 21.5 54zM47.5 59h-2c-.276 0-.5-.224-.5-.5s.224-.5.5-.5h2c.276 0 .5.224.5.5S47.776 59 47.5 59z"></path></g></svg>